<svg width="1148" height="329" viewBox="0 0 1148 329" fill="none" xmlns="http://www.w3.org/2000/svg">
<rect x="7.5" y="7.5" width="1133" height="314" stroke="black" stroke-width="15"/>
<rect x="34" y="34" width="554" height="260" fill="black"/>
<path d="M140.118 207V116.12H201.814V134.552H161.11V154.136H194.646V171.16H161.11V207H140.118ZM212.755 207V116.12H233.747V188.568H277.779V207H212.755ZM287.392 207V116.12H308.384V207H287.392ZM320.28 160.792C320.28 155.245 321.304 149.827 323.352 144.536C325.4 139.16 328.387 134.296 332.312 129.944C336.237 125.592 341.016 122.136 346.648 119.576C352.28 116.931 358.68 115.608 365.848 115.608C374.381 115.608 381.763 117.443 387.992 121.112C394.307 124.781 399 129.56 402.072 135.448L385.944 146.712C384.579 143.469 382.744 140.952 380.44 139.16C378.221 137.368 375.747 136.131 373.016 135.448C370.371 134.68 367.811 134.296 365.336 134.296C361.325 134.296 357.827 135.107 354.84 136.728C351.853 138.264 349.379 140.355 347.416 143C345.453 145.645 344.003 148.589 343.064 151.832C342.125 155.075 341.656 158.317 341.656 161.56C341.656 165.144 342.211 168.6 343.32 171.928C344.429 175.256 346.008 178.2 348.056 180.76C350.189 183.32 352.749 185.368 355.736 186.904C358.723 188.355 362.008 189.08 365.592 189.08C368.152 189.08 370.755 188.653 373.4 187.8C376.045 186.947 378.477 185.624 380.696 183.832C383 181.955 384.749 179.523 385.944 176.536L403.096 186.648C401.304 191.085 398.36 194.883 394.264 198.04C390.168 201.197 385.517 203.629 380.312 205.336C375.192 206.957 370.115 207.768 365.08 207.768C358.509 207.768 352.451 206.445 346.904 203.8C341.443 201.069 336.707 197.485 332.696 193.048C328.771 188.525 325.699 183.491 323.48 177.944C321.347 172.312 320.28 166.595 320.28 160.792ZM413.415 207V116.12H434.407V155.288L467.687 116.12H491.239L457.191 156.696L493.543 207H469.479L443.879 170.52L434.407 180.248V207H413.415Z" fill="white"/>
<path d="M629.112 207V116.12H690.808V134.552H650.104V154.136H683.64V171.16H650.104V207H629.112ZM701.749 207V116.12H742.709C746.976 116.12 750.901 117.016 754.485 118.808C758.154 120.515 761.312 122.861 763.957 125.848C766.602 128.749 768.65 132.035 770.101 135.704C771.637 139.373 772.405 143.085 772.405 146.84C772.405 150.595 771.808 154.179 770.613 157.592C769.418 160.92 767.712 163.949 765.493 166.68C763.274 169.325 760.629 171.501 757.557 173.208L777.525 207H754.357L736.949 177.688H722.741V207H701.749ZM722.741 159.384H741.941C743.648 159.384 745.141 158.872 746.421 157.848C747.786 156.739 748.896 155.245 749.749 153.368C750.602 151.491 751.029 149.315 751.029 146.84C751.029 144.365 750.517 142.232 749.493 140.44C748.554 138.563 747.36 137.112 745.909 136.088C744.458 135.064 742.922 134.552 741.301 134.552H722.741V159.384ZM787.261 207V116.12H808.253V207H787.261ZM889.269 188.568V207H825.397V116.12H888.117V134.552H846.389V152.216H882.229V169.24H846.389V188.568H889.269ZM922.776 155.032V207H901.784V116.12H918.424L960.536 169.624V116.12H981.528V207H964.376L922.776 155.032ZM998.671 207V116.12H1032.59C1042.57 116.12 1050.89 118.168 1057.55 122.264C1064.29 126.275 1069.37 131.736 1072.78 138.648C1076.2 145.475 1077.9 153.069 1077.9 161.432C1077.9 170.648 1076.03 178.669 1072.27 185.496C1068.52 192.323 1063.23 197.613 1056.4 201.368C1049.66 205.123 1041.72 207 1032.59 207H998.671ZM1056.53 161.432C1056.53 156.141 1055.59 151.491 1053.71 147.48C1051.83 143.384 1049.1 140.227 1045.52 138.008C1041.93 135.704 1037.63 134.552 1032.59 134.552H1019.66V188.568H1032.59C1037.71 188.568 1042.02 187.416 1045.52 185.112C1049.1 182.723 1051.83 179.48 1053.71 175.384C1055.59 171.203 1056.53 166.552 1056.53 161.432Z" fill="black"/>
</svg>
